<?xml version="1.0" encoding="UTF-8"?>
<svg width="25px" height="25px" viewBox="0 0 40 40" version="1.1" xmlns="http://www.w3.org/2000/svg" xmlns:xlink="http://www.w3.org/1999/xlink">
<g id="new-crown" transform="translate(4, 5)" fill="#000000" fill-rule="nonzero">
  <path d="M22.6,10.4 C21.6,10.8 20.6,10.3 20.2,9.4 C19.8,8.5 20.3,7.4 21.2,7 C22.1,6.6 23.2,7.1 23.6,8 C24,8.9 23.5,10 22.6,10.4 M16.7,17.1 C15.8,17.5 14.7,17 14.3,16.1 C13.9,15.2 14.4,14.1 15.3,13.7 C16.2,13.3 17.3,13.8 17.7,14.7 C18.1,15.6 17.6,16.7 16.7,17.1 M27.5,13.4 C26.5,13.8 25.5,13.3 25.1,12.4 C24.7,11.5 25.2,10.4 26.1,10 C27,9.6 28.1,10.1 28.5,11 C28.9,11.9 28.5,13 27.5,13.4 M30.8,18.2 C29.8,18.6 28.8,18.1 28.4,17.2 C28,16.3 28.5,15.2 29.4,14.8 C30.3,14.4 31.4,14.9 31.8,15.8 C32.2,16.7 31.7,17.8 30.8,18.2 M17,4.7 L19.3,5.9 L19.3,2.5 L17,3.2 L16.8,3 L17.7,0 L14.3,0 L15.2,3 L15,3.2 C14.9,3.3 12.7,2.5 12.7,2.5 L12.7,5.9 L15,4.7 C15.1,4.8 15.1,4.9 15.2,4.9 L13.9,8.9 C13.8,9.1 13.8,9.3 13.8,9.5 C13.8,10.6 14.6,11.5 15.7,11.7 L16.4,11.7 C17.4,11.5 18.3,10.6 18.3,9.6 C18.3,9.4 18.3,9.2 18.2,9 L16.9,5 C16.8,4.8 16.9,4.8 17,4.7 M9.4,10.4 C10.3,10.8 11.4,10.3 11.8,9.4 C12.2,8.5 11.7,7.4 10.8,7 C9.9,6.6 8.8,7.1 8.4,8 C8,8.9 8.4,10 9.4,10.4 M4.4,13.4 C5.3,13.8 6.4,13.3 6.8,12.4 C7.2,11.5 6.7,10.4 5.8,10 C4.9,9.6 3.8,10.1 3.4,11 C3,11.9 3.5,13 4.4,13.4 M1.2,18.2 C2.1,18.6 3.2,18.1 3.6,17.2 C4,16.3 3.5,15.2 2.6,14.8 C1.7,14.4 0.6,14.9 0.2,15.8 C-0.2,16.7 0.2,17.8 1.2,18.2 M16,29.2 C20.4,29.2 24.6,29.5 28.3,30 C29.4,25.5 30.7,23 32,21.2 L29.5,20.3 C29.7,21.6 29.8,22.2 29.5,23 C29.1,22.6 28.7,21.9 28.4,20.7 L27.2,24.7 C27.9,24.2 28.5,23.9 29.2,23.8 C28.1,26.3 26.6,26.9 25.7,26.8 C24.6,26.6 24,25.6 24.2,24.7 C24.5,23.5 25.7,23.2 26.3,24.6 C27.4,22.3 25.5,21.6 24.3,22.3 C26.2,20.4 26.4,18.8 24.9,16.7 C22.8,18.3 22.8,19.9 23.7,22.2 C22.5,20.8 20.5,21.6 21.2,23.8 C22.1,22.4 23.3,23.3 23.1,24.6 C22.9,25.7 21.4,26.7 19.6,26.5 C16.9,26.3 16.7,24.4 16.7,22.9 C17.4,22.8 18.6,23.4 19.6,24.8 L20,20.5 C18.9,21.6 17.9,21.9 16.8,21.9 C17.2,20.7 18.9,18.9 18.9,18.9 L13.5,18.9 C13.5,18.9 15.2,20.8 15.6,21.9 C14.5,21.9 13.5,21.7 12.4,20.5 L12.8,24.8 C13.8,23.4 15,22.8 15.7,22.9 C15.6,24.4 15.5,26.3 12.8,26.5 C10.9,26.7 9.4,25.7 9.3,24.6 C9.1,23.3 10.3,22.4 11.2,23.8 C11.9,21.5 10,20.8 8.7,22.2 C9.6,20 9.6,18.3 7.5,16.7 C6,18.7 6.2,20.4 8.1,22.3 C6.9,21.6 5,22.3 6.1,24.6 C6.7,23.2 7.9,23.5 8.2,24.7 C8.4,25.6 7.9,26.6 6.7,26.8 C5.8,27 4.3,26.3 3.2,23.8 C3.8,23.8 4.4,24.1 5.2,24.7 L4,20.7 C3.7,21.8 3.3,22.6 2.9,23 C2.6,22.2 2.7,21.6 2.9,20.3 L0,21.2 C1.3,23 2.6,25.5 3.7,30 C7.4,29.5 11.6,29.2 16,29.2"></path>
</g>
</svg>
