<svg xmlns="http://www.w3.org/2000/svg" viewBox="0 0 40 40" height="24" width="24">
  <path fill="#b1b4b6" d="M8.9 17.2a2 2 0 0 0 2.5-1c.4-.9-.1-2.1-1-2.5a2 2 0 0 0-2.5 1c-.4 1 0 2.1 1 2.5m-4.3 2.5a2 2 0 0 0 2.5-1c.4-.9-.1-2.1-1-2.5a2 2 0 0 0-2.5 1c-.5 1 0 2.1 1 2.5m-1.3 4.8a2 2 0 0 0 2.5-1 2 2 0 0 0-1-2.5 2 2 0 0 0-2.5 1c-.4 1 0 2.1 1 2.5m10.4-5.8a2 2 0 0 0 2.5-1c.4-.9-.1-2.1-1-2.5a2 2 0 0 0-2.5 1 2 2 0 0 0 1 2.5m17.4-1.5a2 2 0 0 1-2.5-1c-.4-.9.1-2.1 1-2.5a2 2 0 0 1 2.5 1c.5 1 0 2.1-1 2.5m4.3 2.5a2 2 0 0 1-2.5-1c-.4-.9.1-2.1 1-2.5a2 2 0 0 1 2.5 1c.5 1 0 2.1-1 2.5m1.3 4.8a2 2 0 0 1-2.5-1 2 2 0 0 1 1-2.5 2 2 0 0 1 2.5 1c.4 1 0 2.1-1 2.5m-10.4-5.8a2 2 0 0 1-2.5-1c-.4-.9.1-2.1 1-2.5a2 2 0 0 1 2.5 1 2 2 0 0 1-1 2.5M21 13.8l2.4 1.3v-3.6l-2.4.8-.2-.2 1-3h-3.4l1 3-.2.2c-.1.1-2.4-.7-2.4-.7v3.5l2.4-1.3c-.1.1 0 .2.1.3l-1.4 4.2-.1.7c0 1.1.8 2.1 1.9 2.2h.6a2.2 2.2 0 0 0 1.9-2.2l-.1-.7-1.4-4.2.3-.3m-1 20.3c4.6 0 8.9.3 12.8.9a24 24 0 0 1 3.8-9.1L34 25c.3 1.3.3 1.9 0 2.8-.4-.4-.8-1.2-1.1-2.4l-1.2 4.2c.8-.5 1.4-.9 2-.9-1.2 2.6-2.7 3.2-3.6 3a1.8 1.8 0 0 1-1.5-2.2c.3-1.3 1.6-1.6 2.2-.1C32 27 30 26.3 28.7 27c1.9-1.9 2.2-3.6.6-5.7-2.2 1.7-2.2 3.3-1.2 5.6-1.3-1.5-3.3-.7-2.5 1.7.9-1.4 2.1-.5 2 .8-.2 1.2-1.7 2.1-3.7 2-2.8-.2-3-2.2-3-3.7.7-.1 1.9.5 3 2l.4-4.4a4 4 0 0 1-3.3 1.4c.4-1.2 2.1-3.1 2.1-3.1h-5.5s1.8 2 2.1 3.1c-1.1 0-2.2-.3-3.3-1.4l.4 4.4c1.1-1.5 2.3-2.1 3-2-.1 1.6-.2 3.5-3 3.7-1.9.2-3.5-.8-3.7-2-.2-1.3 1-2.2 1.9-.8.7-2.4-1.3-3.1-2.6-1.7 1-2.3 1-4-1.2-5.6-1.6 2.1-1.3 3.8.6 5.7-1.3-.7-3.2 0-2.1 2.4.6-1.5 1.9-1.1 2.2.1.2.9-.4 1.9-1.5 2.2-1 .2-2.5-.5-3.7-3 .7 0 1.3.4 2 .9l-1.5-4.2A4.9 4.9 0 0 1 6 27.8c-.3-.8-.2-1.5 0-2.8l-2.6.9c1.5 1.9 2.8 4.5 3.9 9.1 3.8-.5 8.2-.9 12.7-.9"/>
</svg>
